<mxfile host="app.diagrams.net" modified="2024-03-04T12:43:03.875Z" agent="Mozilla/5.0 (Windows NT 10.0; Win64; x64) AppleWebKit/537.36 (KHTML, like Gecko) Chrome/122.0.0.0 Safari/537.36" version="23.1.5" etag="n1JZTW7PfuHz4G_0pq_g" type="github">
  <diagram name="Page-1" id="uwLEdjS0WC0g8wHKAQSC">
    <mxGraphModel>
      <root>
        <mxCell id="0" />
        <mxCell id="1" parent="0" />
      </root>
    </mxGraphModel>
  </diagram>
</mxfile>
